<svg id="그룹_106" data-name="그룹 106" xmlns="http://www.w3.org/2000/svg" width="40" height="40" viewBox="0 0 40 40">
  <defs>
    <style>
      .cls-1 {
        fill: #ff5757;
        stroke: #ff5757;
      }

      .cls-2 {
        fill: #fff;
      }

      .cls-3 {
        stroke: none;
      }

      .cls-4 {
        fill: none;
      }
    </style>
  </defs>
  <g id="그룹_63" data-name="그룹 63">
    <g id="타원_14" data-name="타원 14" class="cls-1">
      <circle class="cls-3" cx="20" cy="20" r="20"/>
      <circle class="cls-4" cx="20" cy="20" r="19.5"/>
    </g>
  </g>
  <path id="Icon_awesome-exclamation" data-name="Icon awesome-exclamation" class="cls-2" d="M8.125,16.875A3.332,3.332,0,0,1,4.625,20a3.332,3.332,0,0,1-3.5-3.125,3.332,3.332,0,0,1,3.5-3.125A3.332,3.332,0,0,1,8.125,16.875ZM1.53.984l.595,10.625a1.006,1.006,0,0,0,1.049.891h2.9a1.006,1.006,0,0,0,1.049-.891L7.72.984A.992.992,0,0,0,6.671,0H2.579A.992.992,0,0,0,1.53.984Z" transform="translate(15.375 10)"/>
</svg>
