<svg xmlns="http://www.w3.org/2000/svg" width="40" height="40" viewBox="0 0 40 40">
  <defs>
    <style>
      .cls-1 {
        fill: #ff5757;
        stroke: #ff5757;
      }

      .cls-2 {
        fill: #fff;
      }

      .cls-3 {
        stroke: none;
      }

      .cls-4 {
        fill: none;
      }
    </style>
  </defs>
  <g id="그룹_105" data-name="그룹 105" transform="translate(-15.2)">
    <g id="그룹_63" data-name="그룹 63" transform="translate(15.2)">
      <g id="타원_14" data-name="타원 14" class="cls-1">
        <circle class="cls-3" cx="20" cy="20" r="20"/>
        <circle class="cls-4" cx="20" cy="20" r="19.5"/>
      </g>
    </g>
    <path id="Icon_open-question-mark" data-name="Icon open-question-mark" class="cls-2" d="M7.455,0A8.8,8.8,0,0,0,1.781,1.65,5.082,5.082,0,0,0,0,4.85l3.018.325A2.82,2.82,0,0,1,3.954,3.45a5.052,5.052,0,0,1,3.5-.95,6.108,6.108,0,0,1,3.682.85A1.938,1.938,0,0,1,11.982,5c0,2.075-1.026,2.65-2.535,3.75s-3.5,2.7-3.5,5.625V15H8.964v-.625c0-2.075.936-2.65,2.445-3.75S15,7.925,15,5a4.429,4.429,0,0,0-1.781-3.525A9.536,9.536,0,0,0,7.455,0ZM5.946,17.5V20H8.964V17.5Z" transform="translate(27.7 10)"/>
  </g>
</svg>
