<svg xmlns="http://www.w3.org/2000/svg" width="50" height="50" viewBox="0 0 50 50">
  <defs>
    <style>
      .cls-1 {
        fill: #ff4343;
        stroke: #707070;
      }

      .cls-2 {
        fill: #f8f9fa;
      }

      .cls-3 {
        stroke: none;
      }

      .cls-4 {
        fill: none;
      }
    </style>
  </defs>
  <g id="chat_btn_on" data-name="chat btn on" transform="translate(-1720 -920)">
    <g id="타원_11" data-name="타원 11" class="cls-1" transform="translate(1720 920)">
      <circle class="cls-3" cx="25" cy="25" r="25"/>
      <circle class="cls-4" cx="25" cy="25" r="24.5"/>
    </g>
    <path id="Icon_metro-bubble" data-name="Icon metro-bubble" class="cls-2" d="M15.071,3.856c-6.9,0-12.5,4.853-12.5,10.838s5.6,10.838,12.5,10.838A14.481,14.481,0,0,0,17.02,25.4c2.685,2.865,5.89,3.379,8.989,3.455v-.7c-1.673-.875-3.125-2.468-3.125-4.289a5.364,5.364,0,0,1,.053-.748,10.346,10.346,0,0,0,4.635-8.423C27.571,8.709,21.974,3.856,15.071,3.856Z" transform="translate(1729.929 928.644)"/>
  </g>
</svg>
