<svg xmlns="http://www.w3.org/2000/svg" width="75" height="75" viewBox="0 0 75 75">
  <defs>
    <style>
      .cls-1 {
        fill: #ff5757;
        stroke: #ff5757;
      }

      .cls-2 {
        fill: #fff;
      }

      .cls-3 {
        stroke: none;
      }

      .cls-4 {
        fill: none;
      }
    </style>
  </defs>
  <g id="그룹_82" data-name="그룹 82" transform="translate(-1415 -323)">
    <g id="그룹_63" data-name="그룹 63" transform="translate(32 -5)">
      <g id="타원_14" data-name="타원 14" class="cls-1" transform="translate(1383 328)">
        <circle class="cls-3" cx="37.5" cy="37.5" r="37.5"/>
        <circle class="cls-4" cx="37.5" cy="37.5" r="37"/>
      </g>
    </g>
    <path id="Icon_awesome-exclamation" data-name="Icon awesome-exclamation" class="cls-2" d="M12.375,30.375A5.625,5.625,0,1,1,6.75,24.75,5.631,5.631,0,0,1,12.375,30.375Zm-10.6-28.6L2.732,20.9a1.687,1.687,0,0,0,1.685,1.6H9.082a1.687,1.687,0,0,0,1.685-1.6l.956-19.125A1.688,1.688,0,0,0,10.039,0H3.461A1.688,1.688,0,0,0,1.776,1.772Z" transform="translate(1445.75 342.5)"/>
  </g>
</svg>
