<svg xmlns="http://www.w3.org/2000/svg" width="75" height="75" viewBox="0 0 75 75">
  <defs>
    <style>
      .cls-1 {
        fill: #ff5757;
        stroke: #ff5757;
      }

      .cls-2 {
        fill: #fff;
      }

      .cls-3 {
        stroke: none;
      }

      .cls-4 {
        fill: none;
      }
    </style>
  </defs>
  <g id="그룹_81" data-name="그룹 81" transform="translate(-1415 -323)">
    <g id="그룹_63" data-name="그룹 63" transform="translate(32 -5)">
      <g id="타원_14" data-name="타원 14" class="cls-1" transform="translate(1383 328)">
        <circle class="cls-3" cx="37.5" cy="37.5" r="37.5"/>
        <circle class="cls-4" cx="37.5" cy="37.5" r="37"/>
      </g>
    </g>
    <path id="Icon_open-question-mark" data-name="Icon open-question-mark" class="cls-2" d="M11.115,0C7.29,0,4.455,1.17,2.655,2.97A9.819,9.819,0,0,0,0,8.73l4.5.585A5.453,5.453,0,0,1,5.895,6.21C6.75,5.355,8.1,4.5,11.115,4.5c2.97,0,4.59.72,5.49,1.53A3.762,3.762,0,0,1,17.865,9c0,3.735-1.53,4.77-3.78,6.75s-5.22,4.86-5.22,10.125V27h4.5V25.875c0-3.735,1.4-4.77,3.645-6.75S22.365,14.265,22.365,9A8.645,8.645,0,0,0,19.71,2.655C17.775.9,14.895,0,11.115,0ZM8.865,31.5V36h4.5V31.5Z" transform="translate(1441.317 342.5)"/>
  </g>
</svg>
